<svg xmlns="http://www.w3.org/2000/svg" width="24" height="24" viewBox="0 0 24 24"><defs><style>.a{fill:#71717a;}</style></defs><g transform="translate(2.228 2.6)"><path class="a" d="M7.778,12.628a.479.479,0,0,1-.066-.955l.066,0h5.1a.479.479,0,0,1,.067.955l-.067,0Zm-7.288,0a.489.489,0,0,1-.354-.148A.468.468,0,0,1,0,12.136L.075,9.209A2.129,2.129,0,0,1,.719,7.737L7.918.681a2.406,2.406,0,0,1,3.354,0l.961.943a2.293,2.293,0,0,1,0,3.288L5.007,12a2.214,2.214,0,0,1-1.558.632Zm.922-4.213a1.186,1.186,0,0,0-.358.819L.991,11.668H3.449a1.243,1.243,0,0,0,.787-.28l.08-.071,5.976-5.858L7.359,2.585Zm9.572-3.634.559-.548a1.347,1.347,0,0,0,0-1.931l-.962-.943a1.413,1.413,0,0,0-1.971,0l-.559.548Z"/></g></svg>